<svg width="40" height="40" viewBox="0 0 40 40" fill="none" xmlns="http://www.w3.org/2000/svg">
<g clip-path="url(#clip0_5_4)">
<path d="M0.390613 3.71662C1.54621 2.19414 3.08918 1.09716 4.77863 0.508778C6.48436 -0.0895762 8.33658 -0.172681 10.0846 0.332596C11.9531 0.871115 13.4245 1.99137 14.5475 3.43074C15.8431 5.08951 16.6699 7.17046 17.1061 9.26137C17.2526 9.95945 17.36 10.6974 17.4381 11.4886V11.5019C17.513 12.2797 17.5553 13.1075 17.5651 14.0017V14.0083H17.5683V38.0223C17.5683 38.1652 17.5683 38.1054 17.5683 38.1287C17.5749 38.4544 17.5749 38.5409 17.347 38.8999C17.2526 39.0495 17.1354 39.1824 16.9987 39.2954C16.4355 39.7741 15.4948 40.0002 14.5475 40.0002C13.6198 40.0002 12.6595 39.7808 12.0345 39.3686C11.8522 39.2489 11.6927 39.1093 11.569 38.9564C11.2435 38.5542 11.2467 38.4611 11.2565 38.0788C11.2565 38.0555 11.2565 38.0289 11.2565 37.9126V15.3812C9.541 16.1823 7.52929 16.3552 5.64777 15.933C3.56119 15.4676 1.62108 14.2709 0.390613 12.3795C0.361317 12.3363 0.341785 12.2864 0.325509 12.2399C0.113921 11.6382 0.00649879 9.80987 -1.16258e-05 8.02145C-0.00652204 6.05685 0.123686 4.06899 0.390613 3.71662ZM38.7598 4.22855C37.7344 2.91549 36.3802 1.97142 34.9056 1.45285C33.3854 0.920978 31.735 0.844522 30.1823 1.29329C28.5286 1.76865 27.2233 2.76923 26.2207 4.05237C25.026 5.58149 24.2611 7.51617 23.8542 9.46747C23.7142 10.1356 23.61 10.837 23.5384 11.585V11.5983C23.4668 12.3495 23.4277 13.1507 23.4147 14.0083H23.418V36.9087H27.7637V14.5568C27.7637 14.2809 27.985 14.0549 28.2552 14.0549C28.3561 14.0549 28.4505 14.0848 28.5286 14.1413C30.1693 15.1286 32.2266 15.3879 34.1471 14.9557C35.9277 14.5568 37.5814 13.5662 38.6686 12.0138C38.5579 11.9506 38.4798 11.8277 38.4798 11.688V4.59089C38.4798 4.41803 38.6003 4.26844 38.7598 4.22855ZM25.0488 11.2659C24.8275 11.2659 24.6484 11.4487 24.6484 11.6747C24.6484 11.9008 24.8275 12.0836 25.0488 12.0836C25.2702 12.0836 25.4492 11.9008 25.4492 11.6747C25.4492 11.4487 25.2702 11.2659 25.0488 11.2659ZM35.5273 7.0807C34.8828 7.0807 34.362 7.61258 34.362 8.27077C34.362 8.92896 34.8828 9.46083 35.5273 9.46083C36.1719 9.46083 36.6927 8.92896 36.6927 8.27077C36.6927 7.6159 36.1719 7.0807 35.5273 7.0807ZM29.3001 3.17478C29.4726 3.08835 29.6842 3.16148 29.7689 3.33767C29.8535 3.51385 29.7819 3.72992 29.6094 3.81635C29.2611 3.99253 28.8997 4.26179 28.5547 4.61748C28.2292 4.9499 27.9199 5.3621 27.6497 5.84078C27.5553 6.01364 27.3405 6.07015 27.1712 5.97375C27.0019 5.87402 26.9466 5.65795 27.041 5.48509C27.3405 4.9499 27.6888 4.49116 28.0599 4.1122C28.4603 3.7 28.8867 3.3842 29.3001 3.17478ZM27.7604 37.8095H23.4147V38.0223C23.4147 38.0788 23.4147 38.0522 23.4114 38.1453C23.4114 38.2317 23.4114 38.255 23.4733 38.3547C23.5091 38.4145 23.5612 38.471 23.6263 38.5242C24.0072 38.8467 24.7135 38.9996 25.4525 38.9996C26.2077 38.9996 26.9661 38.8367 27.4316 38.5276C27.5293 38.4611 27.6139 38.3913 27.6758 38.3148C27.7669 38.2018 27.7669 38.1818 27.7637 38.1054L27.7572 37.9093V37.8095H27.7604ZM35.2213 0.508778C36.9075 1.10048 38.4538 2.19414 39.6094 3.71995C39.8763 4.07231 40.0032 6.06018 40 8.02478C39.9967 9.81319 39.8861 11.6415 39.6745 12.2432C39.6614 12.293 39.6387 12.3396 39.6094 12.3828C38.3756 14.2709 36.4355 15.4676 34.3522 15.9364C32.4674 16.3585 30.459 16.1823 28.7435 15.3845V37.9126C28.7435 38.0289 28.7435 38.0555 28.7435 38.0788C28.7565 38.4644 28.7598 38.5542 28.431 38.9564C28.3073 39.1093 28.1478 39.2489 27.9655 39.3686C27.3405 39.7808 26.3802 40.0002 25.4525 40.0002C24.5085 40.0002 23.5677 39.7741 23.0013 39.2954C22.8646 39.1791 22.7474 39.0495 22.653 38.8999C22.4251 38.5442 22.4284 38.4544 22.4316 38.1287C22.4316 38.1054 22.4316 38.1619 22.4316 38.0223V14.0083H22.4349V14.0017C22.4447 13.1075 22.487 12.2764 22.5618 11.5019V11.4886C22.6367 10.6974 22.7474 9.95945 22.8939 9.26137C23.3301 7.17046 24.1569 5.08951 25.4525 3.43074C26.5755 1.99137 28.0469 0.871115 29.9154 0.332596C31.6634 -0.172681 33.5156 -0.0895762 35.2213 0.508778ZM14.9512 11.2659C15.1725 11.2659 15.3516 11.4487 15.3516 11.6747C15.3516 11.9008 15.1725 12.0836 14.9512 12.0836C14.7298 12.0836 14.5508 11.9008 14.5508 11.6747C14.5508 11.4487 14.7298 11.2659 14.9512 11.2659ZM1.24022 4.22855C1.39973 4.26844 1.52017 4.4147 1.52017 4.59089V11.688C1.52017 11.8277 1.4453 11.9506 1.33137 12.0138C2.41861 13.5662 4.07551 14.5601 5.85285 14.9557C7.77343 15.3845 9.83072 15.1252 11.4713 14.1413C11.5495 14.0881 11.6439 14.0549 11.7448 14.0549C12.015 14.0549 12.2363 14.2776 12.2363 14.5568V36.9087H16.582V14.0083H16.5853C16.5755 13.1507 16.5332 12.3495 16.4616 11.5983V11.585C16.39 10.837 16.2858 10.1356 16.1458 9.46747C15.7389 7.51617 14.9739 5.58149 13.7793 4.05237C12.7767 2.76923 11.4713 1.77197 9.8177 1.29329C8.26496 0.844522 6.61457 0.920978 5.09439 1.45285H5.09113C3.61978 1.97142 2.26561 2.91549 1.24022 4.22855ZM4.47264 7.0807C5.11718 7.0807 5.63801 7.61258 5.63801 8.27077C5.63801 8.92896 5.11718 9.46083 4.47264 9.46083C3.82811 9.46083 3.30728 8.92896 3.30728 8.27077C3.30728 7.6159 3.82811 7.0807 4.47264 7.0807ZM10.3906 3.81635C10.2181 3.72992 10.1465 3.51385 10.2311 3.33767C10.3157 3.16148 10.5273 3.08835 10.6999 3.17478C11.1133 3.3842 11.5397 3.7 11.9401 4.1122C12.3079 4.49116 12.6562 4.9499 12.959 5.48509C13.0534 5.65795 12.998 5.87402 12.8288 5.97375C12.6595 6.07015 12.4479 6.01364 12.3502 5.84078C12.0801 5.3621 11.7708 4.9499 11.4453 4.61748C11.1002 4.26179 10.7357 3.99253 10.3906 3.81635ZM16.5853 37.8095H12.2396V37.9093L12.2331 38.1054C12.2298 38.1818 12.2298 38.2018 12.321 38.3148C12.3828 38.3913 12.4674 38.4644 12.5651 38.5276C13.0306 38.8367 13.7923 38.9996 14.5443 38.9996C15.2799 38.9996 15.9863 38.8467 16.3704 38.5242C16.4355 38.471 16.4876 38.4145 16.5234 38.3547C16.5885 38.2516 16.5885 38.2284 16.5853 38.1453C16.5853 38.0522 16.582 38.0788 16.582 38.0223V37.8095H16.5853Z" fill="black"/>
</g>
<defs>
<clipPath id="clip0_5_4">
<rect width="40" height="40" fill="white"/>
</clipPath>
</defs>
</svg>
